<svg width="18" height="16" viewBox="0 0 18 16" fill="none" xmlns="http://www.w3.org/2000/svg">
<path d="M11.9271 8.00423C11.9271 9.67915 10.619 11.0326 9.00017 11.0326C7.38137 11.0326 6.07324 9.67915 6.07324 8.00423C6.07324 6.3293 7.38137 4.97583 9.00017 4.97583C10.619 4.97583 11.9271 6.3293 11.9271 8.00423Z" stroke="#292D32" stroke-width="1.25" stroke-linecap="round" stroke-linejoin="round"/>
<path d="M9 15C11.8861 15 14.5759 13.2405 16.4481 10.1952C17.184 9.00242 17.184 6.99758 16.4481 5.80483C14.5759 2.75952 11.8861 1 9 1C6.11395 1 3.42412 2.75952 1.55187 5.80483C0.816045 6.99758 0.816045 9.00242 1.55187 10.1952C3.42412 13.2405 6.11395 15 9 15Z" stroke="#292D32" stroke-width="1.25" stroke-linecap="round" stroke-linejoin="round"/>
</svg>
