<svg width="16" height="16" viewBox="0 0 16 16" fill="none" xmlns="http://www.w3.org/2000/svg">
<path d="M9.77114 6.22902L6.22914 9.77102C5.77414 9.31602 5.49414 8.69302 5.49414 8.00002C5.49414 6.61402 6.61414 5.49402 8.00014 5.49402C8.69314 5.49402 9.31614 5.77402 9.77114 6.22902Z" stroke="#292D32" stroke-width="1.25" stroke-linecap="round" stroke-linejoin="round"/>
<path d="M12.0739 3.63894C10.8489 2.71494 9.4489 2.21094 7.9999 2.21094C5.52889 2.21094 3.22589 3.66694 1.62289 6.18694C0.992891 7.17394 0.992891 8.83294 1.62289 9.81994C2.17589 10.6879 2.81989 11.4369 3.51989 12.0389" stroke="#292D32" stroke-width="1.25" stroke-linecap="round" stroke-linejoin="round"/>
<path d="M5.49414 13.271C6.29214 13.607 7.13914 13.789 8.00014 13.789C10.4711 13.789 12.7741 12.333 14.3771 9.813C15.0071 8.826 15.0071 7.167 14.3771 6.18C14.1461 5.816 13.8941 5.473 13.6351 5.151" stroke="#292D32" stroke-width="1.25" stroke-linecap="round" stroke-linejoin="round"/>
<path d="M10.4564 8.48999C10.2744 9.47699 9.46942 10.282 8.48242 10.464" stroke="#292D32" stroke-width="1.25" stroke-linecap="round" stroke-linejoin="round"/>
<path d="M6.229 9.771L1 15" stroke="#292D32" stroke-width="1.25" stroke-linecap="round" stroke-linejoin="round"/>
<path d="M15.0005 1L9.77148 6.229" stroke="#292D32" stroke-width="1.25" stroke-linecap="round" stroke-linejoin="round"/>
</svg>
