<svg id="Layer_1" data-name="Layer 1" xmlns="http://www.w3.org/2000/svg" viewBox="0 0 300 300"><rect x="121.93" y="42.38" width="58.18" height="5.22" transform="translate(-0.35 1.19) rotate(-0.45)" style="fill:#0a2463"/><path d="M180.13,47.12l14.8-.17-.1-18.41a13.64,13.64,0,0,0-2.21-7.6,6.49,6.49,0,0,0-5.25-3.11l-73,.83a6.62,6.62,0,0,0-5.21,3.22,13.78,13.78,0,0,0-2.12,7.66l.1,18.41L122,47.78l0-7.61,58.18-.67Z" style="fill:#0a2463"/><path d="M53.88,95.43a7.85,7.85,0,0,0-7.66,9.33L79,275.79a7.87,7.87,0,0,0,7.78,6.38l132.42-1a7.86,7.86,0,0,0,7.67-6.45l31.25-171.52a7.86,7.86,0,0,0-7.79-9.26Zm56.46,175.13a7.8,7.8,0,0,1-8.93-6.47l-22.49-141a7.8,7.8,0,1,1,15.4-2.47l22.5,141A7.8,7.8,0,0,1,110.34,270.56Zm43.13.56a7.8,7.8,0,0,1-7.86-7.74l-1.12-142.74a7.81,7.81,0,0,1,15.61-.13l1.12,142.75A7.81,7.81,0,0,1,153.47,271.12ZM225.71,122l-20.29,141.3A7.8,7.8,0,0,1,190,261.06l20.28-141.3A7.8,7.8,0,0,1,225.71,122Z" style="fill:#0a2463"/><path d="M36.38,88.13,267.7,86.32l-.18-23.56-21.46.17L246,50.54a3.69,3.69,0,0,0-3.71-3.65l-47.33.37-14.8.12L122,47.83,107.16,48,63,48.29A3.69,3.69,0,0,0,59.39,52l.09,12.4-23.28.18Z" style="fill:#0a2463"/></svg>