<?xml version="1.0" encoding="utf-8"?>
<svg xmlns="http://www.w3.org/2000/svg" xmlns:xlink="http://www.w3.org/1999/xlink" version= "1.1" width="1618px" height="1000px" viewBox="-449 214 1618 1000">
<g id="layer1">
<g style="fill:rgb(0,178,230); fill-opacity:1.0; stroke-linejoin: miter">
<path d="M-449.001,212.87222C-449.29984,212.87222,-449.58646,212.99095,-449.79776,213.20226C-450.00906,213.41356,-450.12778,213.70015,-450.12778,213.999L-450.12677,1214.0C-450.12677,1214.6223,-449.62228,1215.1267,-449.0,1215.1267L1169.001,1215.1277C1169.2998,1215.1277,1169.5864,1215.009,1169.7977,1214.7977C1170.009,1214.5864,1170.1277,1214.2998,1170.1277,1214.001L1170.1267,214.0C1170.1267,213.3777,1169.6223,212.87323,1169.0,212.87323L-449.001,212.87222 Z"/>
</g>
</g>
<g id="layer2">
<g style="fill:rgb(0,0,0); fill-opacity:0.16862746; stroke-linejoin: miter">
<path d="M1047.9229,1111.6997L1041.8135,1118.087Q998.3785,1137.3898,787.63214,1148.9629Q575.42737,1160.5267,287.86096,1158.3411Q13.416199,1155.2861,-151.12846,1140.4634Q-203.8504,1135.672,-237.982,1130.0219L-266.66867,1124.213Q-290.3091,1118.2175,-290.5749,1111.6997Q-283.39835,1091.6974,-94.55641,1078.4154Q94.28546,1065.1333,378.674,1064.6285Q663.06256,1065.1333,851.9045,1078.4154Q1040.7463,1091.6974,1047.9229,1111.6997"/>
</g>
<g style="fill:rgb(83,93,102); fill-opacity:1.0; stroke-linejoin: miter">
<path d="M236.90936,800.80444L230.19089,801.2178L210.38437,1072.4912Q210.41553,1075.8835,213.72304,1076.206Q216.61853,1075.9125,217.02597,1073.1299L236.90936,800.80444 Z"/>
</g>
<g style="fill:rgb(0,0,0); fill-opacity:1.0; stroke-linejoin: miter">
<path d="M467.15222,1053.9679L428.86713,1047.7582Q414.11438,1073.9218,409.70703,1083.8754Q404.711,1094.7366,405.71338,1098.9227Q406.34875,1102.3446,411.1012,1103.3365Q417.4455,1104.6534,427.10962,1103.7709Q446.3003,1101.6381,457.8369,1093.9655Q464.07776,1089.8966,463.63873,1080.7638L471.7433,1075.985L467.1595,1054.0026"/>
</g>
<g style="fill:rgb(255,255,255); fill-opacity:1.0; stroke-linejoin: miter">
<path d="M328.9333,422.67407L82.34301,423.26303L112.993546,808.8632L368.66388,785.99243L328.9419,422.7527"/>
</g>
<g style="fill:rgb(0,0,0); fill-opacity:1.0; stroke-linejoin: miter">
<path d="M110.77179,785.13385L112.79898,809.0524L145.43475,807.0439L110.78759,785.1438"/>
</g>
<g style="fill:rgb(83,93,102); fill-opacity:1.0; stroke-linejoin: miter">
<path d="M104.67013,421.9766L81.1407,423.03223L84.42089,454.77664L104.66685,421.99084"/>
</g>
<g style="fill:rgb(83,93,102); fill-opacity:1.0; stroke-linejoin: miter">
<path d="M315.14975,422.20016L331.45172,445.42252L329.51764,422.1076L315.15192,422.20016"/>
</g>
<g style="fill:rgb(0,0,0); fill-opacity:1.0; stroke-linejoin: miter">
<path d="M366.77423,764.57635L350.73856,788.2097L369.04697,786.76544L366.7743,764.577"/>
</g>
<g style="fill:rgb(113,101,101); fill-opacity:1.0; stroke-linejoin: miter">
<path d="M123.216324,808.41156L116.49785,808.8249L96.691315,1080.0983Q96.72248,1083.4907,100.02998,1083.8134Q102.92548,1083.5195,103.33291,1080.7369L123.216324,808.41156 Z"/>
</g>
<g style="fill:rgb(113,101,101); fill-opacity:1.0; stroke-linejoin: miter">
<path d="M346.7353,787.95404L344.87466,788.1205L346.79,800.0464Q346.718,796.56586,346.64645,793.03894Q346.55615,791.00366,346.7433,787.95404 Z"/>
</g>
<g style="fill:rgb(0,0,0); fill-opacity:1.0; stroke-linejoin: miter">
<path d="M406.43243,1056.2828L355.88873,1039.5725Q340.20148,1054.758,331.5199,1060.0144Q327.76343,1062.4136,323.58392,1064.3704Q322.04462,1065.2668,306.51318,1071.4124Q302.99976,1072.9541,301.1211,1074.3015Q297.1394,1077.0969,297.89062,1080.8303Q301.49316,1091.011,327.11255,1091.7891Q338.32025,1091.9854,346.8272,1090.1104Q349.9629,1089.4089,353.08636,1088.2981Q354.8365,1087.7944,363.96863,1083.6572Q366.03864,1082.8391,367.82507,1082.6428Q369.49225,1082.438,371.59326,1082.696Q371.48016,1082.5234,380.2072,1084.4563Q382.56317,1084.8245,385.04962,1084.8577Q391.61255,1084.9353,399.48004,1083.1382Q405.13513,1081.84,411.69604,1079.7062L406.44366,1056.3329"/>
</g>
<g style="fill:rgb(254,190,174); fill-opacity:1.0; stroke-linejoin: miter">
<path d="M320.77353,563.2823Q306.05154,562.99805,297.75906,565.62256Q295.611,566.2451,292.69797,567.2974Q278.23642,572.8746,275.20633,573.78424Q273.10947,574.58386,254.76128,579.903Q251.38701,580.9396,249.36467,581.69714Q243.7542,583.7311,242.83977,586.0429L241.98412,591.93Q241.88875,592.7559,242.10857,593.32684Q242.60384,594.7723,246.1523,594.6629Q254.69637,594.6758,282.79483,585.1609Q274.6332,588.1908,274.7479,591.3175Q274.6774,593.7813,276.90964,595.03516Q278.99216,596.0814,282.0947,595.1554Q283.87766,594.6339,286.13467,593.589Q286.67917,593.4031,294.32645,589.48975Q295.93674,588.7034,297.14645,588.2389Q299.03036,587.5231,300.63858,587.2984Q301.408,587.10236,305.06607,587.15924Q305.63174,587.1337,306.32486,586.933Q308.15225,586.3872,310.7462,584.2001L311.9476,583.1641L320.7593,563.31445"/>
</g>
<g style="fill:rgb(0,0,0); fill-opacity:1.0; stroke-linejoin: miter">
<path d="M427.11212,353.39307Q417.25793,353.4319,410.43988,358.6988Q404.8067,362.87128,399.02325,375.30862Q393.03632,377.37912,391.55518,381.47314Q389.73047,385.47864,390.4306,395.01886Q390.69208,398.96478,391.39117,404.41843Q395.05707,428.76752,394.7343,428.56012L453.18433,432.39954Q458.0677,430.73782,460.24994,427.02957Q462.87457,422.9416,464.57294,414.56873Q468.4195,393.8486,463.91602,379.25436Q460.30298,368.24307,450.17908,360.98273Q439.49292,353.6224,427.1925,353.39313"/>
</g>
<g style="fill:rgb(0,0,0); fill-opacity:1.0; stroke-linejoin: miter">
<path d="M471.1949,457.94168L399.43262,481.78705Q390.9098,484.78107,386.19037,488.83148Q378.00912,494.9926,373.6519,514.06067Q369.5049,530.86005,365.48093,579.87823L317.64505,561.6746L303.7338,601.5212L362.50394,622.86774L358.65073,656.74133Q349.78024,712.07605,350.36264,713.1394Q348.80875,726.24384,353.69275,738.0341Q343.02985,792.36005,343.719,805.67944Q347.31433,979.0026,351.4848,1043.9802Q382.9508,1068.6843,408.94226,1057.4232Q408.23187,1029.0978,406.94324,1015.24896L405.15558,1000.52423L399.54657,967.22614Q398.175,954.59717,398.73047,941.59296Q399.39978,925.7713,402.15717,908.67163Q414.34033,842.7834,418.15594,816.36554Q434.39716,886.20496,435.1496,928.4105Q435.99048,953.5223,431.03375,995.60175Q422.3966,1021.0528,422.14587,1029.3785Q421.3382,1037.9672,423.99292,1049.4862L424.68463,1052.5135Q434.50958,1050.3993,442.70276,1051.9567L471.6145,1061.2479L493.6803,746.7791L526.23175,727.20886L491.04163,617.31885Q514.30695,624.49567,520.39844,608.498Q523.5004,601.0907,525.30054,586.33673L531.836,518.7917Q531.9995,503.8228,522.09247,494.49036Q512.53436,484.33698,480.2893,468.47574L471.2041,457.95242"/>
</g>
<g style="fill:rgb(255,255,255); fill-opacity:1.0; stroke-linejoin: miter">
<path d="M460.9325,448.1563L420.51562,479.1412L412.966,468.60458L409.42273,482.95172Q400.3542,496.72125,396.35132,507.00916Q388.9843,524.11456,383.53848,561.61346Q376.30795,612.9456,372.64078,666.5034Q383.30276,673.15204,405.1045,668.7745L403.828,591.68066Q431.33832,524.935,442.39746,503.0453Q454.03333,479.15582,468.9848,460.6152L461.08832,448.39398"/>
</g>
<g style="fill:rgb(255,255,255); fill-opacity:1.0; stroke-linejoin: miter">
<path d="M324.7587,564.3343L317.55637,561.59314L305.89774,589.0223L312.0104,592.5159L324.74026,564.3752"/>
</g>
<g style="fill:rgb(254,190,174); fill-opacity:1.0; stroke-linejoin: miter">
<path d="M402.604,388.73386Q397.9049,389.38092,397.38666,395.9923Q397.07208,398.90512,397.22223,402.91467Q398.40192,419.63043,398.4087,425.63928L396.88312,425.29892Q398.2273,420.1212,396.31476,415.99872Q393.8518,410.75394,392.01367,410.63513Q389.69537,411.0372,392.32422,426.16382Q393.70917,433.41104,394.99017,435.75922Q395.58868,436.78635,396.06525,436.97443Q396.55133,437.2926,397.95612,436.83972Q398.40594,436.91895,398.56934,437.49057Q400.102,447.6015,400.37946,448.14453Q401.20312,451.593,402.4856,454.01663Q404.79572,458.83118,412.38007,465.9947L413.099,471.78317L419.63995,479.53592L435.1167,471.16165L461.3977,449.9022L461.45764,449.80026Q459.94446,448.47488,459.3988,447.50726Q458.77753,446.41016,458.64124,445.3878Q458.222,444.69485,459.13525,436.1662Q459.15845,434.5496,458.84515,433.00525Q462.42395,433.57605,463.95514,428.2575Q466.98907,417.28497,466.31854,410.08353Q465.20105,405.59344,461.79584,409.4074Q459.61664,412.0985,457.79083,421.17392Q457.5927,406.12628,456.52966,400.04947Q455.4394,394.30225,452.24725,392.53473Q450.02106,391.18414,445.84076,391.56427L441.53528,392.17093Q429.75183,394.66602,429.12207,394.6312Q425.45013,395.17038,422.90198,394.93973Q419.8966,394.70532,417.03033,393.67026L406.9693,389.2669Q404.406,388.50708,402.68994,388.72397"/>
</g>
<g style="fill:rgb(0,0,0); fill-opacity:1.0; stroke-linejoin: miter">
<path d="M418.87555,478.9922L412.2168,490.29285L412.99628,495.17322Q406.52173,497.65985,402.8968,507.08447Q399.07812,516.3276,395.39325,536.5811Q390.0777,564.4739,379.0676,653.9147L384.7343,665.0352L394.36108,653.0944Q403.6964,577.01465,409.91956,546.22Q412.27716,534.0759,414.31976,526.7044Q415.09772,523.87836,416.08624,520.9342L419.27734,512.4232Q419.76593,511.04938,420.0332,509.80908Q420.96515,506.1704,420.28052,497.44867L425.98474,490.59387L418.9209,479.06543"/>
</g>
<g style="fill:rgb(0,0,0); fill-opacity:1.0; stroke-linejoin: miter">
<path d="M416.60583,510.05273L415.3493,511.1668L415.14453,515.373L416.74207,515.32306L416.60583,510.05365"/>
</g>
<g style="fill:rgb(0,0,0); fill-opacity:0.1254902; stroke-linejoin: miter">
<path d="M400.21707,744.20685L414.6516,814.4461L414.67725,814.506L416.39508,811.1121L416.40387,811.1146Q417.0214,807.0265,417.44418,803.8511L418.18246,807.58105L419.58688,804.8063L400.23755,744.2706L400.21707,744.20685 Z"/>
</g>
<g style="fill:rgb(0,0,0); fill-opacity:0.1254902; stroke-linejoin: miter">
<path d="M406.01517,691.52246Q408.01892,711.8188,412.48117,724.4494Q420.28452,746.987,436.486,749.17706Q439.57156,749.6958,443.093,749.6958Q450.25284,749.69574,459.21442,747.55145Q474.27408,743.76117,486.75403,737.0953L486.7497,737.08307Q486.74292,737.06335,486.68512,737.06335Q486.42322,737.0633,485.11536,737.46875Q469.73132,742.6473,463.9452,744.1572Q457.04263,746.0419,451.24548,746.7117Q448.2173,747.06866,445.44925,747.06866Q436.7312,747.0687,430.59357,743.5281Q425.18475,740.61914,418.23096,732.3633L406.02383,691.52246 Z"/>
</g>
<g style="fill:rgb(0,0,0); fill-opacity:0.1254902; stroke-linejoin: miter">
<path d="M363.4232,733.99475Q362.8714,733.99475,362.43585,734.02356Q359.47238,734.1947,360.07184,735.58057Q360.436,736.7342,364.97067,740.021L394.84338,738.41L394.9048,738.4063Q370.25476,733.99475,363.4232,733.99475 Z"/>
</g>
<g style="fill:rgb(0,0,0); fill-opacity:0.1254902; stroke-linejoin: miter">
<path d="M364.7683,723.0026Q360.04715,724.98975,359.2781,725.9696Q358.25253,727.099,360.4028,727.88684Q364.60876,729.46313,385.83517,730.8145L385.87204,730.8167L364.7683,723.0026 Z"/>
</g>
<g style="fill:rgb(0,0,0); fill-opacity:0.1254902; stroke-linejoin: miter">
<path d="M383.82898,558.81854Q381.71417,559.3513,372.30377,601.1532Q361.7843,648.7891,356.37604,681.6184Q352.85922,703.3602,352.88828,714.0652Q353.2143,725.16986,356.44693,729.03986L371.93234,670.5653Q380.36267,606.1244,382.5702,584.8741Q385.34195,558.9142,383.87347,558.82404L383.82898,558.81854 Z"/>
</g>
<g style="fill:rgb(0,0,0); fill-opacity:0.1254902; stroke-linejoin: miter">
<path d="M374.1093,661.61804L374.1093,661.62054Q376.962,667.5891,379.1435,670.5121Q381.60428,673.9084,384.81976,676.3855Q391.31985,681.4123,406.15958,686.3421L406.19827,686.34314L404.73965,663.2185L404.73825,663.1962L374.11765,661.61804 Z"/>
</g>
<g style="fill:rgb(0,0,0); fill-opacity:0.1254902; stroke-linejoin: miter">
<path d="M438.13428,590.9596L436.2262,596.8799L485.7956,616.4151L485.80313,616.4171L438.13428,590.9596 Z"/>
</g>
<g style="fill:rgb(0,0,0); fill-opacity:0.1254902; stroke-linejoin: miter">
<path d="M479.5116,523.4832L477.87494,556.3144L481.90143,556.43005L479.5136,523.51L479.5116,523.4832 Z"/>
</g>
<g style="fill:rgb(0,0,0); fill-opacity:0.1254902; stroke-linejoin: miter">
<path d="M478.41125,470.71948L471.47003,491.9804L462.1775,494.964L466.06018,503.6151L411.75378,584.1349L475.4171,508.00995L478.404,470.8162L478.41125,470.71948L478.41125,470.7222 Z"/>
</g>
<g style="fill:rgb(0,0,0); fill-opacity:0.1882353; stroke-linejoin: miter">
<path d="M455.22418,448.45734Q446.5218,460.22867,441.91125,464.96857Q436.6684,470.4778,432.40814,472.35193Q423.94098,476.1387,413.16168,467.1408L422.6773,478.2178Q437.5006,470.57053,443.52136,464.89273Q448.96722,460.2884,455.2102,448.49945"/>
</g>
<g style="fill:rgb(255,255,255); fill-opacity:1.0; stroke-linejoin: miter">
<path d="M447.07648,537.4956L426.7032,563.6523L431.42773,576.49817L445.08118,578.2783L452.31628,556.7896L450.99017,541.8755L447.10498,537.5274"/>
</g>
<g style="fill:rgb(254,190,174); fill-opacity:1.0; stroke-linejoin: miter">
<path d="M418.65607,511.05316Q417.44586,510.9308,414.69434,513.30475L414.3706,519.2907Q406.31732,517.546,404.41272,523.4049Q403.628,526.0691,405.7348,527.36993Q407.53424,528.6006,413.88513,529.4193Q409.15363,531.8275,408.12396,535.41675Q406.70197,540.22894,408.03113,546.7276Q408.95172,550.8334,410.91248,552.6888Q411.953,553.66504,413.349,554.2141Q413.90442,554.5436,418.08075,555.44696Q418.89618,555.6988,419.45782,556.1433Q420.73975,556.96875,421.22583,560.2538L431.94257,569.2836Q441.41693,560.4903,444.7379,551.2315Q448.95538,539.3335,447.11505,529.5871Q446.06598,524.95184,443.1844,523.0816Q441.70984,522.11285,439.35266,521.5862Q438.9792,521.3265,429.99994,520.3997Q427.89056,520.037,426.69513,519.4267Q425.26776,518.7307,424.10706,517.5182Q423.25543,516.87195,420.28973,511.90533Q419.63763,511.10107,418.71997,511.05408"/>
</g>
<g style="fill:rgb(255,0,0); fill-opacity:1.0; stroke-linejoin: miter">
<path d="M421.89185,509.31195L415.88483,509.55017L415.41516,519.841L421.01636,520.0741L421.89142,509.31696"/>
</g>
<g style="fill:rgb(255,0,0); fill-opacity:1.0; stroke-linejoin: miter">
<path d="M420.04932,500.4085L417.2426,500.70837L415.25354,511.31903L422.6029,510.81525L420.0503,500.41254"/>
</g>
<g style="fill:rgb(0,0,0); fill-opacity:0.09411765; stroke-linejoin: miter">
<path d="M432.1715,577.1322L437.31293,595.673L444.96228,578.6123L432.1809,577.1322"/>
</g>
<g style="fill:rgb(0,0,0); fill-opacity:1.0; stroke-linejoin: miter">
<path d="M59.391884,680.07416L98.602394,680.0744L137.81302,680.07446Q137.81293,729.60034,137.81293,779.1257Q98.602295,779.1259,59.391777,779.1261Q59.391895,729.6003,59.391884,680.07416 Z"/>
</g>
<g style="fill:rgb(0,0,0); fill-opacity:1.0; stroke-linejoin: miter">
<path d="M3.0481339,768.2774L98.602295,768.2782L194.15678,768.2787Q194.15678,775.88153,194.15678,783.4843Q98.602295,783.48456,3.048027,783.4845Q3.048027,775.8812,3.0481339,768.2774 Z"/>
</g>
<g style="fill:rgb(252,233,234); fill-opacity:1.0; stroke-linejoin: miter">
<path d="M105.19649,699.7601L105.19649,699.76074L105.19649,699.7605C105.19649,700.1331,104.89459,700.4348,104.52219,700.4348C104.14978,700.4348,103.84776,700.1331,103.84776,699.7605L103.84776,699.7609L103.84776,699.7601C103.84776,699.38763,104.14978,699.08575,104.52219,699.08575C104.89459,699.08575,105.19649,699.38763,105.19649,699.7601 Z"/>
</g>
<g style="fill:rgb(0,0,0); fill-opacity:1.0; stroke-linejoin: miter">
<path d="M74.42226,1092.4749L81.917786,1127.4316Q62.118748,1131.3955,54.350117,1131.5Q47.21879,1132.0564,34.1655,1129.0626L37.91163,1078.5929L74.42226,1092.4749"/>
</g>
<g style="fill:rgb(0,0,0); fill-opacity:1.0; stroke-linejoin: miter">
<path d="M162.78036,1089.1453L167.62697,1129.4115Q153.21292,1133.6733,146.33403,1133.5171Q139.1113,1133.7152,126.17844,1129.6982L132.4274,1093.9954L162.78036,1089.1453"/>
</g>
<g style="fill:rgb(64,107,139); fill-opacity:0.99607843; stroke-linejoin: miter">
<path d="M80.91705,935.69055L80.07746,1017.8761L79.237885,1100.0618L34.252758,1100.7164Q25.1748,1018.3386,16.096588,935.96094L80.91705,935.69055"/>
</g>
<g style="fill:rgb(64,107,139); fill-opacity:0.99607843; stroke-linejoin: miter">
<path d="M122.19545,934.1768L124.137474,1017.64514L126.0795,1101.1135Q149.35907,1100.9801,172.63873,1100.8464Q182.18362,1015.8207,191.7283,930.79517L122.19545,934.1768"/>
</g>
<g style="fill:rgb(60,70,79); fill-opacity:1.0; stroke-linejoin: miter">
<path d="M-141.28732,784.46155L104.86293,784.46234L351.01294,784.46295Q351.01297,793.82196,351.01297,803.1806Q104.86293,803.181,-141.28732,803.1816Q-141.28732,793.82166,-141.28732,784.46155"/>
</g>
<g style="fill:rgb(255,191,175); fill-opacity:0.99607843; stroke-linejoin: miter">
<path d="M-13.291977,725.8843L-13.291977,725.8847L-13.291977,793.28864Q9.334442,806.6293,31.960724,819.96967Q22.840004,779.07043,13.719406,738.1715L-13.291977,725.8843"/>
</g>
<g style="fill:rgb(255,191,175); fill-opacity:0.99607843; stroke-linejoin: miter">
<path d="M215.91945,712.4846L215.91945,712.4851L215.91946,779.88904Q193.29315,793.2298,170.66687,806.5702Q179.7876,765.67096,188.90819,724.77203L215.91945,712.4846"/>
</g>
<g style="fill:rgb(60,70,79); fill-opacity:1.0; stroke-linejoin: miter">
<path d="M-86.86073,802.5693L-76.45682,802.5697L-66.05289,802.5702Q-66.05286,967.07794,-66.05286,1131.5854Q-76.45679,1131.5857,-86.86072,1131.5863Q-86.86072,967.07764,-86.86073,802.5693"/>
</g>
<g style="fill:rgb(60,70,79); fill-opacity:1.0; stroke-linejoin: miter">
<path d="M292.87985,802.5697L303.28378,802.5701L313.6878,802.57086Q313.68784,967.0781,313.68784,1131.5857Q303.2838,1131.5859,292.87988,1131.5864Q292.87988,967.0781,292.87985,802.5697"/>
</g>
<g style="fill:rgb(34,43,50); fill-opacity:1.0; stroke-linejoin: miter">
<path d="M194.9409,817.64465L207.95734,817.6453L220.97388,817.64575Q220.97388,881.8472,220.97389,946.0491Q207.95734,946.04956,194.94092,946.05005Q194.94092,881.8472,194.9409,817.64465"/>
</g>
<g style="fill:rgb(34,43,50); fill-opacity:1.0; stroke-linejoin: miter">
<path d="M-18.518837,816.092L-5.502304,816.0927L7.514244,816.0932Q7.5142517,880.2946,7.5142517,944.4965Q-5.5022964,944.49695,-18.51883,944.4974Q-18.51883,880.29456,-18.518837,816.092"/>
</g>
<g style="fill:rgb(0,0,0); fill-opacity:1.0; stroke-linejoin: miter">
<path d="M198.3105,1137.4866L197.43787,1139.3522Q191.23468,1144.9891,161.13669,1148.3688Q130.83028,1151.7461,89.7612,1151.1075Q50.565823,1150.2153,27.0662,1145.8868Q19.536583,1144.4873,14.662125,1142.8373L10.565201,1141.141Q7.188919,1139.3901,7.1509933,1137.4865Q8.175865,1131.6456,35.145626,1127.767Q62.11528,1123.8878,102.73058,1123.7408Q143.34601,1123.888,170.31577,1127.7671Q197.28552,1131.6459,198.3105,1137.4866"/>
</g>
<g style="fill:rgb(0,0,0); fill-opacity:0.99607843; stroke-linejoin: miter">
<path d="M208.66678,931.45514L207.6892,937.4696Q202.74434,948.75903,191.70508,955.4187Q182.4905,961.5048,166.05249,966.93286Q134.2471,976.8152,91.57155,975.5456Q47.16088,973.44495,20.098297,960.07666Q17.89241,959.44604,11.390076,955.1903L6.7161484,951.8116Q2.4195023,948.41846,-0.36846924,944.96716Q-5.9445114,938.06476,-5.485649,930.92957Q-3.9939346,912.4395,25.939354,900.2276Q56.98583,887.39075,101.58687,887.1316Q143.424,887.30597,175.22766,899.15924Q207.37503,911.9413,208.66678,931.45514"/>
</g>
<g style="fill:rgb(35,75,105); fill-opacity:0.99607843; stroke-linejoin: miter">
<path d="M123.325745,1090.0905L149.3825,1090.0911L175.4393,1090.0917Q175.4393,1096.0682,175.4393,1102.0447Q149.38252,1102.0452,123.325745,1102.0455Q123.325745,1096.0682,123.325745,1090.0905"/>
</g>
<g style="fill:rgb(35,75,105); fill-opacity:0.99607843; stroke-linejoin: miter">
<path d="M32.169724,1092.3713L57.089066,1092.372L82.0084,1092.3724Q82.0084,1098.2755,82.0084,1104.1787Q57.089066,1104.1793,32.169724,1104.1798Q32.169724,1098.2755,32.169724,1092.3713"/>
</g>
<g style="fill:rgb(35,75,105); fill-opacity:0.99607843; stroke-linejoin: miter">
<path d="M-95.58873,628.16125L-95.58873,628.1617L-95.58873,628.1619L-95.58873,628.1617L-95.58873,628.16125L-95.58873,628.1617L-95.58873,628.1619Q-95.58873,628.1617,-95.58873,628.16125"/>
</g>
<g style="fill:rgb(0,0,0); fill-opacity:1.0; stroke-linejoin: miter">
<path d="M91.52242,955.4397L102.73068,955.4402L113.93916,955.44037Q113.93918,1048.0708,113.939186,1140.7012Q102.730705,1140.7017,91.522446,1140.7019Q91.52244,1048.0708,91.52242,955.4397"/>
</g>
<g style="fill:rgb(0,0,0); fill-opacity:1.0; stroke-linejoin: miter">
<path d="M-107.150055,735.05756L-82.63031,735.05804L-58.110535,735.05853Q-58.110535,759.57776,-58.110535,784.0972Q-82.63031,784.0978,-107.150055,784.0982Q-107.150055,759.57776,-107.150055,735.05756"/>
</g>
<g style="fill:rgb(0,0,0); fill-opacity:1.0; stroke-linejoin: miter">
<path d="M-120.74716,747.1551L-120.74716,747.1558L-98.13327,747.1561C-96.81818,747.1561,-95.75214,748.22205,-95.75214,749.5372L-95.75214,749.53827L-95.75214,772.1504C-95.75214,773.4653,-96.81818,774.5316,-98.13327,774.5316L-98.13327,774.53235L-120.74716,774.5325C-121.378845,774.5325,-121.98447,774.28143,-122.43097,773.8351C-122.87758,773.3887,-123.12851,772.7828,-123.12851,772.15125L-123.12851,772.152L-123.12851,749.53613C-123.12851,748.9048,-122.87758,748.2989,-122.43097,747.8523C-121.98447,747.4057,-121.378845,747.1551,-120.74716,747.1551L-120.74716,747.1558 M-120.74739,751.9174L-118.36618,749.5362L-118.36618,772.1513L-120.74739,769.77L-98.133484,769.7689L-100.51462,772.1504L-100.51462,749.5372L-98.133484,751.9186L-120.74739,751.9174 Z"/>
</g>
<g style="fill:rgb(0,0,0); fill-opacity:1.0; stroke-linejoin: miter">
<path d="M-27.998657,882.7431L98.4472,882.7436L224.8928,882.74414Q224.8928,899.49207,224.8928,916.24005Q98.4472,916.2404,-27.998657,916.2406Q-27.998657,899.4922,-27.998657,882.7431"/>
</g>
<g style="fill:rgb(255,191,175); fill-opacity:0.99607843; stroke-linejoin: miter">
<path d="M65.01265,593.13275L65.21931,595.92175Q66.842545,614.40607,64.90516,623.2717Q63.401085,631.43256,54.378387,640.02893L136.39426,628.18384Q122.97237,622.9095,119.294754,615.08405Q115.07588,608.1844,112.70459,584.00836L65.01265,593.13275"/>
</g>
<g style="fill:rgb(255,191,175); fill-opacity:0.99607843; stroke-linejoin: miter">
<path d="M54.082245,578.94037L54.043526,580.7527Q53.4514,586.25073,49.58447,589.69714Q45.68948,593.14246,40.19504,592.75824Q34.939495,592.117,31.631184,588.05615Q30.570587,586.7431,29.853054,585.17206L29.23724,583.55164Q28.715145,581.874,28.631119,580.0298Q28.525127,574.36346,31.95515,570.45123Q35.38506,566.539,40.78645,566.1645Q46.19999,566.076,49.951797,569.6808Q53.703476,573.28577,54.082245,578.94037"/>
</g>
<g style="fill:rgb(255,191,175); fill-opacity:0.99607843; stroke-linejoin: miter">
<path d="M137.85521,570.4857L137.81638,572.2983Q137.22437,577.7961,133.35732,581.24274Q129.46231,584.6881,123.967865,584.30334Q118.71234,583.66235,115.40402,579.60175Q112.09686,575.5117,112.44269,569.7626Q113.0347,564.26483,116.901855,560.81793Q120.79687,557.37286,126.29119,557.75726Q131.54684,558.3983,134.85504,562.4589Q135.91562,563.772,136.63315,565.34344L137.24898,566.96387Q137.77118,568.64124,137.85521,570.4857"/>
</g>
<g style="fill:rgb(179,68,155); fill-opacity:1.0; stroke-linejoin: miter">
<path d="M137.16391,617.0009L137.16391,617.0019L137.16391,617.00275L137.16391,617.0037L137.16391,617.00464L53.943672,625.1721C29.152184,637.80255,12.222816,647.7014,2.9352036,654.57587C-6.681717,661.6941,-13.422173,669.5161,-17.4422,678.1675C-22.021004,688.02136,-39.565605,765.1886,-21.809631,785.3974C-4.0536575,805.60626,13.31897,822.453,22.757015,815.80115C32.87712,808.6686,14.685905,749.6657,14.685905,749.6657L18.882923,765.24786C32.333134,815.1866,24.311497,860.4213,16.078445,907.0024L174.18488,907.79974C169.3045,895.9647,167.31119,857.08057,166.35901,840.01385C164.58702,808.2533,176.35446,742.27795,176.35446,742.27795L199.84552,796.7401C199.31183,789.9346,222.91965,791.6805,227.66292,768.4336C232.18306,746.28033,217.84892,699.019,217.40399,695.5441C214.31783,671.44165,208.25519,655.7774,199.5458,648.0423C195.83449,644.74615,191.51642,641.4899,186.11847,638.7827L155.71869,626.86176C150.51183,624.60144,144.32967,621.31604,137.17212,617.00574L137.16391,617.0009L137.16391,617.0019L137.16391,617.0009L137.16391,617.0019 Z"/>
</g>
<g style="fill:rgb(255,255,255); fill-opacity:1.0; stroke-linejoin: miter">
<path d="M65.37881,543.787Q63.715813,543.7962,62.524506,544.9424Q61.362556,546.1099,61.32418,547.77594Q61.33689,549.4422,62.47538,550.62463Q63.64369,551.7878,65.30426,551.8283Q66.967606,551.82135,68.16088,550.6773Q69.324326,549.51086,69.36513,547.8449Q69.35391,546.1781,68.2174,544.99414Q67.051056,543.8297,65.390594,543.787 Z"/>
</g>
<g style="fill:rgb(0,0,0); fill-opacity:1.0; stroke-linejoin: miter">
<path d="M64.78021,543.7699Q63.998524,543.7705,63.631546,543.95874L61.23472,545.5535L62.584373,545.0579Q62.34789,546.37024,62.470524,547.22906Q62.588654,548.1965,63.11212,549.3109Q64.419014,551.93854,65.82831,551.95013Q66.49811,551.9418,66.99199,551.3817Q67.46611,550.8056,67.519165,549.9489Q67.67416,548.5686,66.266716,544.6492L66.35837,544.02136L67.77113,543.934Q65.57472,543.75806,64.7905,543.7699 Z"/>
</g>
<g style="fill:rgb(0,0,0); fill-opacity:1.0; stroke-linejoin: miter">
<path d="M63.405357,536.8723Q61.21287,537.49255,58.91903,540.55133L70.84655,538.4935L70.72102,538.43243L69.464294,537.90845Q68.79404,537.6371,68.27253,537.44977Q67.24778,537.0809,66.39721,536.8934Q64.68705,536.5124,63.409172,536.8712 Z"/>
</g>
<g style="fill:rgb(255,255,255); fill-opacity:1.0; stroke-linejoin: miter">
<path d="M43.148846,548.13885Q41.48595,548.14764,40.294197,549.29285Q39.13236,550.46094,39.09386,552.1274Q39.10728,553.79395,40.245304,554.9756Q41.413597,556.13885,43.0744,556.1793Q44.737648,556.1723,45.931034,555.0285Q47.094257,553.8618,47.1347,552.1954Q47.123844,550.5291,45.98708,549.3454Q44.821095,548.1809,43.1604,548.13885 Z"/>
</g>
<g style="fill:rgb(0,0,0); fill-opacity:1.0; stroke-linejoin: miter">
<path d="M42.549896,548.1206Q41.76868,548.12177,41.401928,548.3102L39.004528,549.9047L40.354645,549.41003Q40.11792,550.7217,40.240555,551.5801Q40.35845,552.5475,40.88205,553.6617Q42.188694,556.29047,43.598812,556.3006Q44.26814,556.29346,44.76215,555.73315Q45.236374,555.1571,45.289425,554.2999Q45.44431,552.9196,44.036407,549.0002L44.128635,548.3733L45.5407,548.2852Q43.344517,548.1095,42.560753,548.1206 Z"/>
</g>
<g style="fill:rgb(0,0,0); fill-opacity:1.0; stroke-linejoin: miter">
<path d="M41.175037,541.2243Q38.98267,541.844,36.688946,544.90326L48.61658,542.84515L48.490948,542.78345L47.233753,542.2597Q46.564075,541.9892,46.042328,541.80176Q45.017456,541.432,44.166893,541.2448Q42.45685,540.8634,41.17931,541.22217 Z"/>
</g>
<g style="fill:rgb(0,0,0); fill-opacity:1.0; stroke-linejoin: miter">
<path d="M-2.3882828,702.73926L102.730545,702.73975L207.8496,702.74005Q207.84961,821.76447,207.84962,940.78894Q102.73056,940.78937,-2.3882675,940.7895Q-2.3882751,821.76434,-2.3882828,702.73926"/>
</g>
<g style="fill:rgb(179,68,155); fill-opacity:0.99607843; stroke-linejoin: miter">
<path d="M41.72142,634.2396L55.124435,627.73517L57.464195,617.36426L127.00986,606.8995L136.96646,624.69336L41.72142,634.2396"/>
</g>
<g style="fill:rgb(179,68,155); fill-opacity:0.99607843; stroke-linejoin: miter">
<path d="M131.31976,484.03503L131.31973,484.03564L131.31972,484.03625L131.31976,484.03503"/>
</g>
<g style="fill:rgb(107,39,37); fill-opacity:1.0; stroke-linejoin: miter">
<path d="M113.00441,508.21503L115.54399,508.8805Q123.38637,510.53497,129.21242,515.2683Q131.07976,516.9602,132.49876,519.33655L133.77791,521.92633Q134.93097,524.7087,135.46783,528.43207Q137.90097,548.02936,126.39984,583.0586Q123.04089,592.268,119.267365,598.2466Q117.372284,601.25824,115.31746,603.61523Q114.419266,605.12195,108.695854,609.4815Q91.16097,619.5187,75.153496,615.4578Q54.903015,610.61975,38.51122,577.282Q32.511917,564.5893,30.07312,551.343Q27.646015,538.1035,30.687096,527.1208Q32.26306,521.71497,35.02768,517.09283L38.011787,512.67596Q41.25422,508.4593,45.21777,505.0808Q49.18132,501.7021,53.554264,499.19714Q55.718773,497.37146,66.814674,493.7379Q77.06418,491.05157,86.98427,493.75922Q98.08769,496.81805,113.00441,508.21503"/>
</g>
<g style="fill:rgb(0,0,0); fill-opacity:1.0; stroke-linejoin: miter">
<path d="M659.913,678.1717L620.70245,678.172L581.49176,678.1719Q581.4918,727.69775,581.4918,777.2231Q620.7026,777.2235,659.91315,777.2237Q659.913,727.6978,659.913,678.1717 Z"/>
</g>
<g style="fill:rgb(0,0,0); fill-opacity:1.0; stroke-linejoin: miter">
<path d="M716.2568,766.37506L620.7026,766.3758L525.14795,766.3761Q525.14795,773.97894,525.14795,781.5817Q620.7026,781.58215,716.2569,781.58215Q716.2569,773.9789,716.2568,766.37506 Z"/>
</g>
<g style="fill:rgb(252,233,234); fill-opacity:1.0; stroke-linejoin: miter">
<path d="M614.1084,697.8576L614.1084,697.8582L614.1084,697.85803C614.1084,698.2307,614.41034,698.53235,614.7827,698.5323C615.1551,698.5323,615.4571,698.2306,615.4571,697.858L615.4571,697.85846L615.4571,697.85754C615.4571,697.4851,615.1551,697.1832,614.7827,697.1832C614.41034,697.1832,614.1084,697.48517,614.1084,697.8576 Z"/>
</g>
<g style="fill:rgb(0,0,0); fill-opacity:1.0; stroke-linejoin: miter">
<path d="M644.88275,1090.5724L637.38715,1125.529Q657.1862,1129.493,664.95483,1129.5975Q672.0862,1130.154,685.13947,1127.1602L681.3933,1076.6906L644.88275,1090.5724"/>
</g>
<g style="fill:rgb(0,0,0); fill-opacity:1.0; stroke-linejoin: miter">
<path d="M556.52454,1087.2426L551.6779,1127.5087Q566.092,1131.7706,572.9708,1131.6143Q580.1936,1131.8125,593.1265,1127.7957L586.8775,1092.0925L556.52454,1087.2426"/>
</g>
<g style="fill:rgb(83,93,102); fill-opacity:1.0; stroke-linejoin: miter">
<path d="M638.3879,933.78815L639.2275,1015.97375L640.0671,1098.1593L685.0522,1098.814Q694.1302,1016.4363,703.2083,934.05853L638.3879,933.78815"/>
</g>
<g style="fill:rgb(83,93,102); fill-opacity:1.0; stroke-linejoin: miter">
<path d="M597.1095,932.2744L595.1675,1015.7428L593.22546,1099.2109Q569.9458,1099.0773,546.66614,1098.9436Q537.1212,1013.9181,527.5765,928.8926L597.1095,932.2744"/>
</g>
<g style="fill:rgb(60,70,79); fill-opacity:1.0; stroke-linejoin: miter">
<path d="M860.5923,782.5593L614.44196,782.55994L368.29187,782.5601Q368.29187,791.91907,368.2919,801.27783Q614.44196,801.2786,860.5923,801.27936Q860.5923,791.9195,860.5923,782.5593"/>
</g>
<g style="fill:rgb(255,191,175); fill-opacity:0.99607843; stroke-linejoin: miter">
<path d="M732.59686,723.9819L732.59686,723.9823L732.5969,791.38635Q709.97046,804.72687,687.3442,818.06726Q696.4649,777.168,705.5856,736.26904L732.59686,723.9819"/>
</g>
<g style="fill:rgb(255,191,175); fill-opacity:0.99607843; stroke-linejoin: miter">
<path d="M503.38525,710.58203L503.38525,710.5825L503.38525,777.98645Q526.0116,791.3272,548.63794,804.6676Q539.51715,763.7684,530.39655,722.86945L503.38525,710.58203"/>
</g>
<g style="fill:rgb(60,70,79); fill-opacity:1.0; stroke-linejoin: miter">
<path d="M806.1657,800.667L795.7618,800.6674L785.3579,800.66797Q785.3579,965.17566,785.3579,1129.6831Q795.76184,1129.6833,806.1658,1129.684Q806.1657,965.1754,806.1657,800.667"/>
</g>
<g style="fill:rgb(60,70,79); fill-opacity:1.0; stroke-linejoin: miter">
<path d="M426.425,800.667L416.02094,800.6674L405.6169,800.66815Q405.6169,965.1754,405.6169,1129.6829Q416.02097,1129.683,426.425,1129.6836Q426.425,965.1754,426.425,800.667"/>
</g>
<g style="fill:rgb(34,43,50); fill-opacity:1.0; stroke-linejoin: miter">
<path d="M524.3639,815.74207L511.34744,815.74274L498.33084,815.74316Q498.33084,879.94464,498.33084,944.1465Q511.34744,944.147,524.3639,944.14746Q524.3639,879.94464,524.3639,815.74207"/>
</g>
<g style="fill:rgb(34,43,50); fill-opacity:1.0; stroke-linejoin: miter">
<path d="M737.8238,814.18964L724.80725,814.19037L711.79065,814.1908Q711.79065,878.3922,711.79065,942.5941Q724.80725,942.5946,737.8238,942.5951Q737.8238,878.3922,737.8238,814.18964"/>
</g>
<g style="fill:rgb(0,0,0); fill-opacity:1.0; stroke-linejoin: miter">
<path d="M520.9943,1135.5839L521.86694,1137.4493Q528.0702,1143.0863,558.1682,1146.466Q588.4747,1149.8434,629.5438,1149.205Q668.7392,1148.313,692.2388,1143.9844Q699.7684,1142.5848,704.6429,1140.9348L708.7398,1139.2385Q712.116,1137.4878,712.154,1135.5841Q711.129,1129.7433,684.1593,1125.8645Q657.1897,1121.9854,616.5744,1121.8383Q575.95886,1121.9852,548.98914,1125.8643Q522.0193,1129.7429,520.9943,1135.5839"/>
</g>
<g style="fill:rgb(0,0,0); fill-opacity:0.99607843; stroke-linejoin: miter">
<path d="M510.638,929.55255L511.6156,935.567Q516.5604,946.85645,527.59973,953.5161Q536.81433,959.60223,553.25244,965.0303Q585.0578,974.9126,627.7334,973.6432Q672.14404,971.54254,699.20667,958.17426Q701.4125,957.54364,707.91486,953.2879L712.58875,949.9092Q716.88544,946.5161,719.6734,943.0648Q725.24945,936.1624,724.7906,929.0273Q723.2988,910.53723,693.36554,898.3252Q662.3191,885.48834,617.7181,885.2291Q575.88086,885.4034,544.07715,897.25665Q511.92975,910.0387,510.638,929.55255"/>
</g>
<g style="fill:rgb(60,70,79); fill-opacity:1.0; stroke-linejoin: miter">
<path d="M595.97925,1088.1879L569.92236,1088.1882L543.8656,1088.1888Q543.8656,1094.1655,543.8656,1100.142Q569.92236,1100.1425,595.97925,1100.143Q595.97925,1094.1656,595.97925,1088.1879"/>
</g>
<g style="fill:rgb(60,70,79); fill-opacity:1.0; stroke-linejoin: miter">
<path d="M687.1352,1090.4689L662.21594,1090.4695L637.2966,1090.4698Q637.2966,1096.373,637.2966,1102.2762Q662.21594,1102.2769,687.1352,1102.2772Q687.1352,1096.373,687.1352,1090.4689"/>
</g>
<g style="fill:rgb(35,75,105); fill-opacity:0.99607843; stroke-linejoin: miter">
<path d="M413.99054,626.2586L413.99054,626.25903L413.99054,626.2593L413.99054,626.25903L413.99054,626.2586L413.99054,626.25903L413.99054,626.2593Q413.99054,626.25903,413.99054,626.2586"/>
</g>
<g style="fill:rgb(0,0,0); fill-opacity:1.0; stroke-linejoin: miter">
<path d="M627.78253,953.5373L616.5742,953.5377L605.3658,953.53796Q605.3658,1046.1682,605.36584,1138.7987Q616.5743,1138.7991,627.78253,1138.7993Q627.78253,1046.1683,627.78253,953.5373"/>
</g>
<g style="fill:rgb(255,0,82); fill-opacity:1.0; stroke-linejoin: miter">
<path d="M826.45496,733.1553L801.93524,733.1557L777.4154,733.1562Q777.4154,757.6755,777.41547,782.19495Q801.9353,782.1955,826.455,782.1959Q826.45496,757.6755,826.45496,733.1553"/>
</g>
<g style="fill:rgb(255,0,82); fill-opacity:1.0; stroke-linejoin: miter">
<path d="M840.05206,745.25287L840.05206,745.25354L817.4382,745.2538C816.12305,745.2538,815.057,746.3197,815.057,747.6348L815.057,747.636L815.057,770.2481C815.057,771.563,816.12305,772.6294,817.4382,772.6294L817.4382,772.63007L840.05206,772.63025C840.6837,772.63025,841.2894,772.3792,841.7359,771.93286C842.1825,771.48645,842.4334,770.88055,842.4334,770.2491L842.4334,770.24976L842.4334,747.63385C842.4334,747.00256,842.1825,746.39667,841.7359,745.9501C841.2894,745.5034,840.6837,745.25287,840.05206,745.25287L840.05206,745.25354 M840.0523,750.01514L837.6711,747.63385L837.6711,770.2491L840.0523,767.8678L817.43835,767.86664L819.81946,770.2481L819.81946,747.6348L817.43835,750.0163L840.0523,750.01514 Z"/>
</g>
<g style="fill:rgb(0,0,0); fill-opacity:1.0; stroke-linejoin: miter">
<path d="M747.30365,880.8408L620.8577,880.8412L494.4119,880.8415Q494.4119,897.5894,494.4119,914.3374Q620.8577,914.338,747.30365,914.3384Q747.30365,897.58997,747.30365,880.8408"/>
</g>
<g style="fill:rgb(255,191,175); fill-opacity:0.99607843; stroke-linejoin: miter">
<path d="M654.2922,591.2303L654.0856,594.01935Q652.4624,612.5036,654.3998,621.36926Q655.9038,629.5301,664.9265,638.12646L582.9105,626.2812Q596.3325,621.007,600.01013,613.1816Q604.229,606.2819,606.6003,582.10596L654.2922,591.2303"/>
</g>
<g style="fill:rgb(255,191,175); fill-opacity:0.99607843; stroke-linejoin: miter">
<path d="M665.22266,577.03784L665.26135,578.8502Q665.85345,584.34827,669.7204,587.7947Q673.6154,591.24,679.10986,590.8558Q684.3654,590.21454,687.6737,586.1537Q688.7343,584.84064,689.45184,583.26965L690.0676,581.6491Q690.5897,579.9716,690.67377,578.1273Q690.7798,572.461,687.34973,568.54877Q683.9198,564.63654,678.5184,564.262Q673.10486,564.17346,669.353,567.7783Q665.6014,571.38336,665.22266,577.03784"/>
</g>
<g style="fill:rgb(255,191,175); fill-opacity:0.99607843; stroke-linejoin: miter">
<path d="M581.4496,568.5831L581.4884,570.39575Q582.08044,575.89355,585.94745,579.34015Q589.84247,582.7855,595.337,582.4009Q600.5925,581.75995,603.9008,577.6993Q607.208,573.60925,606.8622,567.86017Q606.27014,562.36237,602.403,558.9154Q598.508,555.47034,593.0137,555.85486Q587.75793,556.4957,584.4497,560.55634Q583.38916,561.8694,582.67163,563.4409L582.0558,565.06134Q581.53357,566.73865,581.4496,568.5831"/>
</g>
<g style="fill:rgb(255,255,255); fill-opacity:1.0; stroke-linejoin: miter">
<path d="M582.14087,615.0983L582.14087,615.0993L582.14087,615.10016L582.14087,615.10114L582.14087,615.10205L665.36127,623.26965C690.1527,635.9001,707.0821,645.79895,716.3696,652.67346C725.9866,659.7917,732.727,667.6137,736.7471,676.26514C741.32587,686.119,761.6631,764.5367,743.90717,784.7456C726.1512,804.95435,705.986,820.5506,696.5479,813.89874C686.42773,806.7662,704.619,747.76324,704.619,747.76324L700.422,763.34546C686.9718,813.2842,694.9934,858.5189,703.22644,905.1L545.12,905.8971C550.00037,894.06213,551.99365,855.178,552.9458,838.11127C554.7178,806.3507,542.9503,740.37537,542.9503,740.37537L519.4592,794.8375C519.9929,788.032,496.38513,789.77783,491.6418,766.53094C487.12164,744.3777,501.45575,697.1164,501.9007,693.64154C504.98694,669.53906,511.0495,653.8748,519.7589,646.1397C523.4702,642.84357,527.7883,639.58734,533.1863,636.8801L563.58606,624.95917C568.79297,622.69885,574.9751,619.41345,582.1327,615.10315L582.14087,615.0983L582.14087,615.0993L582.14087,615.0983L582.14087,615.0993 Z"/>
</g>
<g style="fill:rgb(255,255,255); fill-opacity:1.0; stroke-linejoin: miter">
<path d="M653.926,541.8845Q655.5891,541.89374,656.78033,543.03986Q657.94226,544.20746,657.98065,545.87354Q657.968,547.5398,656.82947,548.72217Q655.66113,549.8854,654.0006,549.92584Q652.3373,549.91895,651.144,548.7749Q649.9806,547.6084,649.93976,545.9424Q649.951,544.27563,651.0875,543.0916Q652.2538,541.9273,653.91425,541.8845 Z"/>
</g>
<g style="fill:rgb(0,0,0); fill-opacity:1.0; stroke-linejoin: miter">
<path d="M654.5246,541.86743Q655.30634,541.8681,655.6733,542.0562L658.0701,543.65106L656.7205,543.15546Q656.957,544.4678,656.83435,545.32654Q656.7162,546.29395,656.19275,547.40845Q654.88586,550.03613,653.47656,550.0476Q652.8067,550.0393,652.31287,549.47925Q651.83875,548.9032,651.7857,548.04645Q651.6307,546.66614,653.03815,542.74677L652.9465,542.1189L651.5337,542.03156Q653.7301,541.8556,654.51434,541.86743 Z"/>
</g>
<g style="fill:rgb(0,0,0); fill-opacity:1.0; stroke-linejoin: miter">
<path d="M655.8995,534.9699Q658.0919,535.59,660.38586,538.64886L648.45825,536.591L648.5838,536.52997L649.8405,536.0059Q650.5108,535.73456,651.0323,535.5473Q652.05707,535.1784,652.90765,534.9909Q654.61786,534.61,655.8957,534.96875 Z"/>
</g>
<g style="fill:rgb(255,255,255); fill-opacity:1.0; stroke-linejoin: miter">
<path d="M676.15607,546.23645Q677.8189,546.24524,679.0107,547.39044Q680.17255,548.5585,680.21106,550.22504Q680.19763,551.8914,679.05963,553.0731Q677.8913,554.2364,676.23047,554.2768Q674.5672,554.26996,673.3738,553.12616Q672.21063,551.9594,672.17017,550.2929Q672.181,548.6267,673.31775,547.4429Q674.4838,546.2785,676.1445,546.23645 Z"/>
</g>
<g style="fill:rgb(0,0,0); fill-opacity:1.0; stroke-linejoin: miter">
<path d="M676.755,546.2182Q677.5362,546.21936,677.90295,546.4077L680.30035,548.0023L678.95026,547.5076Q679.18695,548.8193,679.06433,549.67755Q678.9464,550.64496,678.42285,551.75916Q677.1162,554.388,675.7061,554.39825Q675.03674,554.39105,674.5427,553.83075Q674.0685,553.25464,674.01544,552.39746Q673.8606,551.0172,675.2685,547.0978L675.1763,546.4708L673.76416,546.38275Q675.9603,546.2071,676.7441,546.2182 Z"/>
</g>
<g style="fill:rgb(0,0,0); fill-opacity:1.0; stroke-linejoin: miter">
<path d="M678.1298,539.3218Q680.3222,539.9415,682.61597,543.0008L670.6883,540.94275L670.81396,540.88104L672.0711,540.3572Q672.7408,540.08673,673.26245,539.89923Q674.2874,539.52966,675.138,539.34235Q676.848,538.961,678.1256,539.3197 Z"/>
</g>
<g style="fill:rgb(0,0,0); fill-opacity:1.0; stroke-linejoin: miter">
<path d="M721.6932,700.83685L616.57434,700.8372L511.45514,700.83746Q511.45517,819.8619,511.45517,938.8863Q616.57434,938.8869,721.6932,938.88715Q721.6932,819.862,721.6932,700.83685"/>
</g>
<g style="fill:rgb(255,255,255); fill-opacity:1.0; stroke-linejoin: miter">
<path d="M677.5835,632.33716L664.1804,625.8327L661.84076,615.4618L592.2949,604.99695L582.33826,622.7908L677.5835,632.33716"/>
</g>
<g style="fill:rgb(179,68,155); fill-opacity:0.99607843; stroke-linejoin: miter">
<path d="M587.9849,482.1325L587.985,482.13306L587.98505,482.13367L587.9849,482.1325"/>
</g>
<g style="fill:rgb(0,0,0); fill-opacity:1.0; stroke-linejoin: miter">
<path d="M606.30035,506.3125L603.7608,506.97803Q595.91846,508.63245,590.09235,513.3657Q588.225,515.0576,586.806,517.43396L585.52686,520.02374Q584.3738,522.8061,583.8369,526.5295Q581.4038,546.1268,592.9049,581.15607Q596.264,590.36554,600.03754,596.3442Q601.9326,599.3558,603.9874,601.71277Q604.8856,603.2195,610.6091,607.57904Q628.1439,617.6162,644.1514,613.55536Q664.40186,608.7173,680.79364,575.37946Q686.79297,562.6869,689.23175,549.4406Q691.6589,536.20105,688.6178,525.2184Q687.0418,519.81256,684.2772,515.1904L681.2931,510.7735Q678.0506,506.55682,674.0871,503.17834Q670.1235,499.79962,665.75055,497.29474Q663.586,495.469,652.4901,491.8355Q642.2406,489.1491,632.3205,491.85675Q621.2171,494.9156,606.30035,506.3125"/>
</g>
<g>
<g style="fill:rgb(255,0,0); fill-opacity:1.0; stroke-linejoin: miter">
<path d="M166.37773,467.3652Q167.65852,467.3652,168.87527,467.6854Q170.09206,467.97363,171.21274,468.5179Q171.69304,468.80612,172.14131,469.19037Q172.58958,469.54257,172.97382,469.99084Q173.32603,470.43912,173.55017,470.98343Q173.7423,471.5278,173.71027,472.20023Q173.55017,473.19284,173.03786,474.02536Q172.55756,474.85788,171.85313,475.59436Q171.1487,476.29877,170.3162,476.93918Q169.48367,477.54758,168.68315,478.0919Q167.7866,478.6362,166.85803,479.21262Q165.92946,479.78897,164.96887,480.2693Q164.00827,480.7175,163.01566,481.03772Q162.02304,481.32593,160.9664,481.35794Q161.03044,479.53284,161.09448,477.6757Q161.15851,475.85052,161.35063,473.92932Q161.44669,473.12885,161.60678,472.26428Q161.73488,471.39978,162.02304,470.56723Q162.31122,469.73468,162.79152,468.9982Q163.27182,468.2938,164.04028,467.81348Q164.58464,467.52533,165.19301,467.46127Q165.76936,467.4293,166.37773,467.3652 Z M226.67111,468.58194Q227.37553,469.4785,227.82382,470.53516Q228.27211,471.59183,228.56029,472.74457Q228.81644,473.86526,228.97653,475.05Q229.13664,476.23474,229.29674,477.38745Q229.45683,479.885,229.64896,482.38254Q229.80905,484.8801,229.96916,487.37762L224.71786,487.37766Q222.15631,487.37772,219.56268,487.31363Q220.07498,484.81607,220.58734,482.3506Q221.06764,479.91705,221.80408,477.4195Q222.60458,475.05002,223.69324,472.71255Q224.78192,470.4071,226.67111,468.58194 Z M226.67111,461.2174Q224.90999,461.40945,223.53314,462.3701Q222.18832,463.29868,221.09967,464.64352Q220.04297,465.9883,219.21048,467.5573Q218.37796,469.1263,217.67352,470.50317Q216.23264,473.83328,215.11192,477.22733Q213.99123,480.58942,212.9666,483.98358Q211.87793,487.53778,210.98137,491.092Q210.11684,494.6462,209.95674,498.26447Q209.95674,499.129,210.05281,499.96152Q210.11684,500.79404,210.40501,501.5945Q210.82127,502.36304,211.58974,502.7793Q212.35823,503.1635,213.22276,503.29163Q213.9272,503.2596,214.4075,502.87537Q214.88782,502.4911,215.24002,501.9147Q215.56021,501.33835,215.81639,500.69797Q216.07254,500.05756,216.29666,499.51324Q216.71294,498.07236,217.22525,496.66345Q217.73755,495.25458,218.15385,493.81375Q219.56271,493.5576,220.93956,493.42947Q222.3164,493.3334,223.66125,493.33344Q223.93878,493.3121,224.2127,493.3121Q224.76059,493.3121,225.29427,493.39746Q225.8706,493.4695,226.483,493.4695Q226.6871,493.46948,226.89526,493.46146Q227.66373,493.4935,228.44022,493.49356Q229.2167,493.49356,230.0012,493.4615Q230.09726,495.06247,230.28938,496.69553Q230.44948,498.29648,230.38542,499.96152Q230.41745,500.69797,230.76967,501.33838Q231.12187,501.9788,231.66621,502.42706Q232.17854,502.8753,232.88295,503.06744Q233.2192,503.16354,233.57942,503.16354Q233.93964,503.16354,234.32387,503.06747Q235.06032,503.00345,235.63667,502.61917Q236.18102,502.23492,236.59727,501.65857Q237.01353,501.11423,237.26968,500.4418Q237.52583,499.7694,237.65393,499.129Q237.84602,498.13635,237.782,497.1758Q237.74998,496.24722,237.55788,495.3186Q237.36574,494.42206,237.07756,493.4935Q236.7894,492.59695,236.50122,491.7004Q235.86082,488.88263,235.5406,486.0008Q235.25243,483.119,235.02827,480.23718Q234.7401,477.25934,234.45192,474.34552Q234.16376,471.43173,233.4593,468.58194Q233.13911,467.3332,232.59479,466.02036Q232.08247,464.70755,231.24997,463.6509Q230.44945,462.5942,229.29674,461.88977Q228.17604,461.21738,226.67111,461.2174 Z M268.3953,461.73288Q268.03445,461.73288,267.72064,461.88977Q267.30438,462.11392,266.95218,462.5622Q266.59995,462.9785,266.3438,463.58682Q266.08762,464.16315,265.92752,464.80356Q265.63934,465.82822,265.51126,466.88486Q265.38318,467.94153,265.31915,468.96616Q265.15906,471.65585,265.127,474.34555Q265.127,477.0032,265.22308,479.66086Q265.127,481.35788,265.19107,483.02292Q265.22308,484.65598,265.22308,486.35303Q265.15906,486.89737,265.063,487.40967Q264.96692,487.922,264.87088,488.4664Q263.17383,486.4491,262.02112,484.11163Q260.86835,481.77414,259.84372,479.34064Q258.85114,476.93915,258.01862,474.4096Q257.1861,471.91208,256.35358,469.41446Q255.93729,468.19766,255.52103,467.04495Q255.1048,465.92426,254.62448,464.80356Q254.36832,464.32327,254.01611,463.843Q253.69592,463.3947,253.27966,463.0105Q252.86339,462.65826,252.35106,462.46616Q251.96684,462.32208,251.52855,462.32208Q251.38249,462.32208,251.23038,462.3381Q250.10966,463.0745,249.53331,464.16318Q248.95695,465.25186,248.63676,466.46863Q248.34859,467.6854,248.18849,468.96622Q248.0284,470.247,247.74022,471.3677Q247.38799,473.57712,247.22789,475.8185Q247.09982,478.05988,247.00377,480.2693Q246.97174,482.5427,246.93971,484.7841Q246.93971,487.02548,246.81165,489.2989Q246.71558,490.6117,246.4274,491.9245Q246.17123,493.20532,245.91508,494.5502Q245.72296,495.76694,245.49881,497.04773Q245.30669,498.2965,245.27469,499.51328Q245.43478,500.92215,246.36334,502.01083Q247.29193,503.06747,248.66881,503.32367Q248.77718,503.3335,248.88103,503.3335Q249.45204,503.3335,249.88554,503.03546Q250.36584,502.68326,250.71806,502.04285Q251.03827,501.43445,251.29442,500.666Q251.51857,499.8975,251.71066,499.12903Q252.06288,497.72012,252.22298,496.31128Q252.35106,494.90237,252.41512,493.46146Q252.57521,491.7324,252.60724,490.00333Q252.63924,488.30624,252.79933,486.57718Q252.86339,484.75204,252.99149,482.95892Q253.08755,481.1658,253.24765,479.34067Q254.08014,481.3579,254.94469,483.31113Q255.8092,485.26434,256.64175,487.28165Q257.6984,489.97128,258.9472,492.597Q260.19595,495.2226,261.82898,498.20044Q262.3413,498.96893,262.85364,499.86548Q263.36594,500.73,264.00638,501.49854Q264.61475,502.267,265.41522,502.8113Q266.1837,503.35565,267.24036,503.4517Q268.07285,503.25958,268.68124,502.74728Q269.28964,502.235,269.70587,501.53055Q270.12213,500.8261,270.3783,500.0256Q270.63446,499.22513,270.73053,498.48865Q270.95465,496.2152,271.08273,493.97382Q271.1788,491.73242,271.11475,489.52307Q271.11472,486.0328,271.0827,482.57465Q271.0827,479.1165,271.2108,475.62634Q271.27484,474.85788,271.40298,474.0574Q271.49902,473.2889,271.49902,472.52045Q271.6271,471.71997,271.69113,470.98346Q271.7552,470.247,271.8192,469.4465Q271.91528,467.14105,271.3389,464.93167Q271.17877,464.4193,270.95462,463.87497Q270.7625,463.36264,270.44232,462.9144Q270.15414,462.4661,269.70587,462.1459Q269.2896,461.85776,268.71326,461.7617Q268.54996,461.73288,268.3953,461.73288 Z M165.5132,461.24942Q164.16837,461.34543,162.63142,461.63364Q161.1265,461.92184,159.74965,462.56223Q158.4048,463.17062,157.38017,464.2273Q156.35555,465.25195,156.00333,466.8209Q155.84322,468.61404,155.71515,470.40717Q155.61908,472.16824,155.55504,473.92935Q155.61908,475.7865,155.55504,477.64365Q155.49101,479.46878,155.36293,481.32593Q155.29889,481.90228,155.20284,482.44666Q155.13878,482.991,155.07475,483.56735Q154.53041,487.1856,154.08214,490.8038Q153.66588,494.42206,153.60184,498.0403Q153.50578,498.9689,153.72992,499.9295Q153.92204,500.85806,154.40233,501.62656Q154.88263,502.39502,155.61908,502.90735Q156.35553,503.41962,157.3802,503.5478Q157.5531,503.57657,157.73465,503.57657Q158.15828,503.57657,158.62897,503.41968Q159.26935,503.22754,159.55753,502.58716Q159.90974,501.9147,160.0058,501.2103Q160.06984,500.50586,160.16591,499.8014Q160.29398,497.11176,160.35802,494.48608Q160.39005,491.8605,160.39005,489.1708Q163.62405,488.2743,166.6339,486.67325Q169.64377,485.10428,172.39746,482.9589Q173.5822,481.9983,174.76694,480.87766Q175.91965,479.78897,176.88023,478.50815Q177.8088,477.25937,178.41718,475.8505Q179.02554,474.4416,179.12161,472.84064Q179.15363,471.5278,178.99353,470.21494Q178.83344,468.90213,178.41718,467.6534Q178.00092,466.43665,177.29648,465.37997Q176.62408,464.32333,175.56743,463.55487Q174.51077,462.7864,173.29402,462.30606Q172.10928,461.85782,170.79648,461.60168Q169.5157,461.37753,168.17084,461.31345Q166.826,461.24942,165.5132,461.24942 Z M189.48221,461.8791Q189.20074,461.87912,188.88766,461.9218Q188.11919,462.0819,187.54285,462.53018Q186.96649,462.9785,186.55023,463.6189Q186.13397,464.25934,185.90984,464.9958Q185.6857,465.73224,185.62166,466.43668Q185.39752,468.00565,185.26944,469.5426Q185.14136,471.04755,185.07733,472.61655Q185.01328,474.24954,184.98126,475.81854Q184.94925,477.38748,184.78915,479.02048Q184.53296,480.90964,184.24478,482.76678Q183.9566,484.5919,183.60439,486.44907Q183.25218,488.27426,183.06007,490.03537Q182.86795,491.79648,182.73988,493.62158Q182.73988,494.32602,182.77188,495.03046Q182.77188,495.70285,182.83592,496.3433Q182.83592,497.62408,183.02805,498.8729Q183.22017,500.12164,183.70047,501.27435Q184.37288,502.45908,185.62164,503.06744Q186.8384,503.6438,188.18324,503.7719Q188.97093,503.85834,189.75862,503.85834Q191.59654,503.8583,193.4345,503.3877Q196.02809,502.7152,198.52565,501.59454Q199.64635,501.05023,200.86308,500.40982Q202.07985,499.8014,203.16853,499.00095Q204.22519,498.2004,205.05771,497.1758Q205.89021,496.18314,206.27444,494.87033Q206.5306,494.1659,206.33849,493.55753Q206.14638,492.98117,205.66608,492.59695Q205.2178,492.2127,204.57741,492.0526Q204.29279,491.9957,204.00185,491.9957Q203.63817,491.9957,203.2646,492.08463Q202.336,492.27673,201.40742,492.75705Q200.51088,493.23734,199.61432,493.62155Q198.62172,494.10187,197.66112,494.58218Q196.73253,495.06244,195.73991,495.51074Q194.10692,496.15115,192.44188,496.63147Q191.00098,497.0552,189.4853,497.05524Q189.28322,497.05524,189.07979,497.0477Q188.63152,495.44672,188.69554,493.74966Q188.7596,492.08463,188.85565,490.38754Q189.1118,487.6338,189.52805,484.91208Q189.94432,482.2225,190.42462,479.46878Q190.96896,476.77908,191.48128,474.12143Q191.99358,471.46378,192.28177,468.74207Q192.40987,467.74945,192.44186,466.46863Q192.47389,465.21985,192.15369,464.1312Q191.83348,463.07455,191.06502,462.40213Q190.46733,461.87915,189.48221,461.8791 Z"/>
</g>
</g>
</g>
</svg>