<svg width="550" height="123" viewBox="0 0 550 123" fill="none" xmlns="http://www.w3.org/2000/svg">
<path d="M68.0176 52.1992C68.0176 62.0299 63.7207 68.4915 55.127 71.584C59.9447 73.3743 63.5742 76.2878 66.0156 80.3242C68.1315 83.9049 69.1895 88.0716 69.1895 92.8242V98H40.0879V31.4473H42.627C51.2207 31.4473 57.5521 33.0749 61.6211 36.3301C65.8854 39.748 68.0176 45.0378 68.0176 52.1992ZM5.71289 31.5449H31.9824V98H5.71289V31.5449ZM142.92 52.1992C142.92 62.0299 138.623 68.4915 130.029 71.584C134.847 73.3743 138.477 76.2878 140.918 80.3242C143.034 83.9049 144.092 88.0716 144.092 92.8242V98H114.99V31.4473H117.529C126.123 31.4473 132.454 33.0749 136.523 36.3301C140.788 39.748 142.92 45.0378 142.92 52.1992ZM80.6152 31.5449H106.885V98H80.6152V31.5449Z" fill="#2C379B"/>
<path d="M55.127 71.584L54.7884 70.6431L52.2156 71.5689L54.7786 72.5213L55.127 71.584ZM66.0156 80.3242L66.8766 79.8155L66.8713 79.8067L66.0156 80.3242ZM69.1895 98V99H70.1895V98H69.1895ZM40.0879 98H39.0879V99H40.0879V98ZM40.0879 31.4473V30.4473H39.0879V31.4473H40.0879ZM61.6211 36.3301L62.2465 35.5498L62.2458 35.5492L61.6211 36.3301ZM5.71289 31.5449V30.5449H4.71289V31.5449H5.71289ZM31.9824 31.5449H32.9824V30.5449H31.9824V31.5449ZM31.9824 98V99H32.9824V98H31.9824ZM5.71289 98H4.71289V99H5.71289V98ZM67.0176 52.1992C67.0176 56.97 65.9758 60.8368 63.9622 63.8647C61.9527 66.8866 58.9202 69.1562 54.7884 70.6431L55.4655 72.5249C59.9275 70.9193 63.3403 68.4119 65.6276 64.9722C67.911 61.5385 69.0176 57.2592 69.0176 52.1992H67.0176ZM54.7786 72.5213C59.4049 74.2406 62.8461 77.0162 65.16 80.8418L66.8713 79.8067C64.3023 75.5594 60.4845 72.5081 55.4753 70.6466L54.7786 72.5213ZM65.1547 80.8329C67.1672 84.2387 68.1895 88.2246 68.1895 92.8242H70.1895C70.1895 87.9186 69.0959 83.5712 66.8765 79.8155L65.1547 80.8329ZM68.1895 92.8242V98H70.1895V92.8242H68.1895ZM69.1895 97H40.0879V99H69.1895V97ZM41.0879 98V31.4473H39.0879V98H41.0879ZM40.0879 32.4473H42.627V30.4473H40.0879V32.4473ZM42.627 32.4473C51.1294 32.4473 57.1876 34.0639 60.9964 37.1109L62.2458 35.5492C57.9165 32.0858 51.312 30.4473 42.627 30.4473V32.4473ZM60.9957 37.1104C64.9539 40.283 67.0176 45.2396 67.0176 52.1992H69.0176C69.0176 44.8359 66.8169 39.2131 62.2465 35.5498L60.9957 37.1104ZM5.71289 32.5449H31.9824V30.5449H5.71289V32.5449ZM30.9824 31.5449V98H32.9824V31.5449H30.9824ZM31.9824 97H5.71289V99H31.9824V97ZM6.71289 98V31.5449H4.71289V98H6.71289ZM130.029 71.584L129.691 70.6431L127.118 71.5689L129.681 72.5213L130.029 71.584ZM140.918 80.3242L141.779 79.8155L141.774 79.8067L140.918 80.3242ZM144.092 98V99H145.092V98H144.092ZM114.99 98H113.99V99H114.99V98ZM114.99 31.4473V30.4473H113.99V31.4473H114.99ZM136.523 36.3301L137.149 35.5498L137.148 35.5492L136.523 36.3301ZM80.6152 31.5449V30.5449H79.6152V31.5449H80.6152ZM106.885 31.5449H107.885V30.5449H106.885V31.5449ZM106.885 98V99H107.885V98H106.885ZM80.6152 98H79.6152V99H80.6152V98ZM141.92 52.1992C141.92 56.97 140.878 60.8368 138.865 63.8647C136.855 66.8866 133.823 69.1562 129.691 70.6431L130.368 72.5249C134.83 70.9193 138.243 68.4119 140.53 64.9722C142.813 61.5385 143.92 57.2592 143.92 52.1992H141.92ZM129.681 72.5213C134.307 74.2406 137.748 77.0162 140.062 80.8418L141.774 79.8067C139.205 75.5594 135.387 72.5081 130.378 70.6466L129.681 72.5213ZM140.057 80.8329C142.07 84.2387 143.092 88.2246 143.092 92.8242H145.092C145.092 87.9186 143.998 83.5712 141.779 79.8155L140.057 80.8329ZM143.092 92.8242V98H145.092V92.8242H143.092ZM144.092 97H114.99V99H144.092V97ZM115.99 98V31.4473H113.99V98H115.99ZM114.99 32.4473H117.529V30.4473H114.99V32.4473ZM117.529 32.4473C126.032 32.4473 132.09 34.0639 135.899 37.1109L137.148 35.5492C132.819 32.0858 126.214 30.4473 117.529 30.4473V32.4473ZM135.898 37.1104C139.856 40.283 141.92 45.2396 141.92 52.1992H143.92C143.92 44.8359 141.719 39.2131 137.149 35.5498L135.898 37.1104ZM80.6152 32.5449H106.885V30.5449H80.6152V32.5449ZM105.885 31.5449V98H107.885V31.5449H105.885ZM106.885 97H80.6152V99H106.885V97ZM81.6152 98V31.5449H79.6152V98H81.6152Z" fill="#2C379B"/>
<path d="M293.018 52.1992C293.018 62.0299 288.721 68.4915 280.127 71.584C284.945 73.3743 288.574 76.2878 291.016 80.3242C293.132 83.9049 294.189 88.0716 294.189 92.8242V98H265.088V31.4473H267.627C276.221 31.4473 282.552 33.0749 286.621 36.3301C290.885 39.748 293.018 45.0378 293.018 52.1992ZM230.713 31.5449H256.982V98H230.713V31.5449ZM341.309 31.5449H345.117C357.194 31.5449 365.169 36.9323 369.043 47.707C370.605 52.1341 371.387 57.2285 371.387 62.9902C371.387 72.6908 369.515 80.6823 365.771 86.9648C361.344 94.3216 354.46 98 345.117 98H341.309V31.5449ZM329.541 98C317.529 98 309.57 91.9128 305.664 79.7383C304.069 74.7904 303.271 69.2077 303.271 62.9902C303.271 50.3275 306.787 41.3919 313.818 36.1836C317.952 33.0911 323.193 31.5449 329.541 31.5449H333.35V98H329.541ZM417.578 31.5449H444.58V76.6621C444.58 83.8561 442.936 89.1458 439.648 92.5312C436.035 96.1771 430.143 98 421.973 98H417.578V31.5449ZM379.932 75.1973H409.473V98H406.299C396.956 98 390.234 96.5026 386.133 93.5078C381.999 90.5456 379.932 85.6139 379.932 78.7129V75.1973Z" fill="#2C379B"/>
<path d="M280.127 71.584L279.788 70.6431L277.216 71.5689L279.779 72.5213L280.127 71.584ZM291.016 80.3242L291.877 79.8155L291.871 79.8067L291.016 80.3242ZM294.189 98V99H295.189V98H294.189ZM265.088 98H264.088V99H265.088V98ZM265.088 31.4473V30.4473H264.088V31.4473H265.088ZM286.621 36.3301L287.247 35.5498L287.246 35.5492L286.621 36.3301ZM230.713 31.5449V30.5449H229.713V31.5449H230.713ZM256.982 31.5449H257.982V30.5449H256.982V31.5449ZM256.982 98V99H257.982V98H256.982ZM230.713 98H229.713V99H230.713V98ZM292.018 52.1992C292.018 56.97 290.976 60.8368 288.962 63.8647C286.953 66.8866 283.92 69.1562 279.788 70.6431L280.466 72.5249C284.927 70.9193 288.34 68.4119 290.628 64.9722C292.911 61.5385 294.018 57.2592 294.018 52.1992H292.018ZM279.779 72.5213C284.405 74.2406 287.846 77.0162 290.16 80.8418L291.871 79.8067C289.302 75.5594 285.484 72.5081 280.475 70.6466L279.779 72.5213ZM290.155 80.8329C292.167 84.2387 293.189 88.2246 293.189 92.8242H295.189C295.189 87.9186 294.096 83.5712 291.877 79.8155L290.155 80.8329ZM293.189 92.8242V98H295.189V92.8242H293.189ZM294.189 97H265.088V99H294.189V97ZM266.088 98V31.4473H264.088V98H266.088ZM265.088 32.4473H267.627V30.4473H265.088V32.4473ZM267.627 32.4473C276.129 32.4473 282.188 34.0639 285.996 37.1109L287.246 35.5492C282.917 32.0858 276.312 30.4473 267.627 30.4473V32.4473ZM285.996 37.1104C289.954 40.283 292.018 45.2396 292.018 52.1992H294.018C294.018 44.8359 291.817 39.2131 287.247 35.5498L285.996 37.1104ZM230.713 32.5449H256.982V30.5449H230.713V32.5449ZM255.982 31.5449V98H257.982V31.5449H255.982ZM256.982 97H230.713V99H256.982V97ZM231.713 98V31.5449H229.713V98H231.713ZM341.309 31.5449V30.5449H340.309V31.5449H341.309ZM369.043 47.707L369.986 47.3742L369.984 47.3687L369.043 47.707ZM365.771 86.9648L366.628 87.4805L366.631 87.4767L365.771 86.9648ZM341.309 98H340.309V99H341.309V98ZM305.664 79.7383L306.616 79.4328L306.616 79.4315L305.664 79.7383ZM313.818 36.1836L314.414 36.9872L314.417 36.9843L313.818 36.1836ZM333.35 31.5449H334.35V30.5449H333.35V31.5449ZM333.35 98V99H334.35V98H333.35ZM341.309 32.5449H345.117V30.5449H341.309V32.5449ZM345.117 32.5449C351.007 32.5449 355.812 33.8576 359.596 36.4141C363.377 38.9677 366.223 42.8188 368.102 48.0453L369.984 47.3687C367.989 41.8205 364.911 37.5906 360.716 34.7568C356.525 31.926 351.304 30.5449 345.117 30.5449V32.5449ZM368.1 48.0399C369.617 52.3389 370.387 57.317 370.387 62.9902H372.387C372.387 57.14 371.594 51.9294 369.986 47.3742L368.1 48.0399ZM370.387 62.9902C370.387 72.5677 368.538 80.3679 364.912 86.453L366.631 87.4767C370.492 80.9967 372.387 72.8138 372.387 62.9902H370.387ZM364.915 86.4492C360.687 93.4748 354.146 97 345.117 97V99C354.773 99 362.002 95.1684 366.628 87.4805L364.915 86.4492ZM345.117 97H341.309V99H345.117V97ZM342.309 98V31.5449H340.309V98H342.309ZM329.541 97C323.71 97 318.943 95.5255 315.171 92.6403C311.393 89.7509 308.524 85.3793 306.616 79.4328L304.712 80.0438C306.71 86.2717 309.774 91.031 313.955 94.2289C318.142 97.4309 323.361 99 329.541 99V97ZM306.616 79.4315C305.058 74.5999 304.271 69.1233 304.271 62.9902H302.271C302.271 69.2921 303.08 74.9808 304.712 80.0451L306.616 79.4315ZM304.271 62.9902C304.271 50.495 307.737 41.9329 314.414 36.9872L313.223 35.38C305.837 40.851 302.271 50.1599 302.271 62.9902H304.271ZM314.417 36.9843C318.342 34.0486 323.359 32.5449 329.541 32.5449V30.5449C323.028 30.5449 317.563 32.1337 313.219 35.3828L314.417 36.9843ZM329.541 32.5449H333.35V30.5449H329.541V32.5449ZM332.35 31.5449V98H334.35V31.5449H332.35ZM333.35 97H329.541V99H333.35V97ZM417.578 31.5449V30.5449H416.578V31.5449H417.578ZM444.58 31.5449H445.58V30.5449H444.58V31.5449ZM439.648 92.5312L440.359 93.2352L440.366 93.2279L439.648 92.5312ZM417.578 98H416.578V99H417.578V98ZM379.932 75.1973V74.1973H378.932V75.1973H379.932ZM409.473 75.1973H410.473V74.1973H409.473V75.1973ZM409.473 98V99H410.473V98H409.473ZM386.133 93.5078L386.723 92.7002L386.715 92.6949L386.133 93.5078ZM417.578 32.5449H444.58V30.5449H417.578V32.5449ZM443.58 31.5449V76.6621H445.58V31.5449H443.58ZM443.58 76.6621C443.58 83.7293 441.962 88.7135 438.931 91.8346L440.366 93.2279C443.91 89.5782 445.58 83.9829 445.58 76.6621H443.58ZM438.938 91.8273C435.598 95.1975 430.029 97 421.973 97V99C430.258 99 436.472 97.1566 440.359 93.2352L438.938 91.8273ZM421.973 97H417.578V99H421.973V97ZM418.578 98V31.5449H416.578V98H418.578ZM379.932 76.1973H409.473V74.1973H379.932V76.1973ZM408.473 75.1973V98H410.473V75.1973H408.473ZM409.473 97H406.299V99H409.473V97ZM406.299 97C397.014 97 390.56 95.5023 386.723 92.7002L385.543 94.3154C389.909 97.5029 396.899 99 406.299 99V97ZM386.715 92.6949C382.931 89.9831 380.932 85.4165 380.932 78.7129H378.932C378.932 85.8113 381.067 91.1081 385.55 94.3207L386.715 92.6949ZM380.932 78.7129V75.1973H378.932V78.7129H380.932Z" fill="#2C379B"/>
<path d="M190.014 31.5449H193.627C203.295 31.5449 210.521 33.8724 215.307 38.5273C219.701 42.7917 221.898 48.8301 221.898 56.6426C221.898 63.5762 219.62 69.1589 215.062 73.3906C210.212 77.8828 203.523 80.1289 194.994 80.1289H190.014V31.5449ZM154.955 31.5449H181.225V97.9023H154.955V31.5449Z" fill="#FF7602" style="mix-blend-mode:darken"/>
<path d="M190.014 31.5449V30.5449H189.014V31.5449H190.014ZM215.307 38.5273L214.609 39.2441L214.61 39.245L215.307 38.5273ZM215.062 73.3906L215.742 74.1243L215.743 74.1234L215.062 73.3906ZM190.014 80.1289H189.014V81.1289H190.014V80.1289ZM154.955 31.5449V30.5449H153.955V31.5449H154.955ZM181.225 31.5449H182.225V30.5449H181.225V31.5449ZM181.225 97.9023V98.9023H182.225V97.9023H181.225ZM154.955 97.9023H153.955V98.9023H154.955V97.9023ZM190.014 32.5449H193.627V30.5449H190.014V32.5449ZM193.627 32.5449C203.151 32.5449 210.08 34.8384 214.609 39.2441L216.004 37.8106C210.963 32.9064 203.439 30.5449 193.627 30.5449V32.5449ZM214.61 39.245C218.761 43.2725 220.898 49.0219 220.898 56.6426H222.898C222.898 48.6383 220.642 42.3108 216.003 37.8097L214.61 39.245ZM220.898 56.6426C220.898 63.3335 218.711 68.6381 214.382 72.6578L215.743 74.1234C220.529 69.6796 222.898 63.8189 222.898 56.6426H220.898ZM214.383 72.657C209.766 76.9327 203.346 79.1289 194.994 79.1289V81.1289C203.699 81.1289 210.658 78.8329 215.742 74.1243L214.383 72.657ZM194.994 79.1289H190.014V81.1289H194.994V79.1289ZM191.014 80.1289V31.5449H189.014V80.1289H191.014ZM154.955 32.5449H181.225V30.5449H154.955V32.5449ZM180.225 31.5449V97.9023H182.225V31.5449H180.225ZM181.225 96.9023H154.955V98.9023H181.225V96.9023ZM155.955 97.9023V31.5449H153.955V97.9023H155.955Z" fill="#FF7602"/>
<path d="M459.303 55.1777C456.633 51.304 455.299 45.7865 455.299 38.625V31.5449H474.537L510.865 71.3398C512.916 73.6185 514.283 75.5391 514.967 77.1016C515.65 78.6641 516.155 80.0964 516.48 81.3984C517.197 84.0026 517.555 87.209 517.555 91.0176V98H498.854L459.449 55.1777H459.303ZM496.412 52.3945C496.412 43.4427 497.796 37.6159 500.562 34.9141C502.027 33.4818 503.932 32.5703 506.275 32.1797C508.652 31.7565 511.533 31.5449 514.918 31.5449H517.555V39.2598C517.555 46.1934 515.732 50.832 512.086 53.1758C509.482 54.8685 505.104 55.7148 498.951 55.7148H496.412V52.3945ZM455.299 90.3828C455.299 83.4492 457.122 78.7943 460.768 76.418C463.372 74.7578 467.75 73.9277 473.902 73.9277H476.441V77.248C476.441 86.2975 475.058 92.1081 472.291 94.6797C470.403 96.4375 467.652 97.4792 464.039 97.8047C462.216 97.9349 460.182 98 457.936 98H455.299V90.3828Z" fill="#FF7602"/>
<path d="M459.303 55.1777L458.479 55.7451L458.777 56.1777H459.303V55.1777ZM455.299 31.5449V30.5449H454.299V31.5449H455.299ZM474.537 31.5449L475.276 30.8707L474.978 30.5449H474.537V31.5449ZM510.865 71.3398L511.609 70.6709L511.604 70.6656L510.865 71.3398ZM516.48 81.3984L515.51 81.641L515.513 81.6523L515.516 81.6636L516.48 81.3984ZM517.555 98V99H518.555V98H517.555ZM498.854 98L498.118 98.6771L498.415 99H498.854V98ZM459.449 55.1777L460.185 54.5006L459.888 54.1777H459.449V55.1777ZM500.562 34.9141L501.261 35.6295L501.262 35.6291L500.562 34.9141ZM506.275 32.1797L506.44 33.1661L506.451 33.1642L506.275 32.1797ZM517.555 31.5449H518.555V30.5449H517.555V31.5449ZM512.086 53.1758L511.545 52.3346L511.541 52.3373L512.086 53.1758ZM496.412 55.7148H495.412V56.7148H496.412V55.7148ZM460.768 76.418L460.23 75.5747L460.222 75.5802L460.768 76.418ZM476.441 73.9277H477.441V72.9277H476.441V73.9277ZM472.291 94.6797L471.61 93.9472L471.61 93.9478L472.291 94.6797ZM464.039 97.8047L464.11 98.8021L464.12 98.8015L464.129 98.8007L464.039 97.8047ZM455.299 98H454.299V99H455.299V98ZM460.126 54.6103C457.618 50.9698 456.299 45.6829 456.299 38.625H454.299C454.299 45.89 455.649 51.6383 458.479 55.7451L460.126 54.6103ZM456.299 38.625V31.5449H454.299V38.625H456.299ZM455.299 32.5449H474.537V30.5449H455.299V32.5449ZM473.799 32.2191L510.127 72.014L511.604 70.6656L475.276 30.8707L473.799 32.2191ZM510.122 72.0088C512.149 74.2607 513.431 76.0868 514.051 77.5024L515.883 76.7007C515.135 74.9914 513.683 72.9763 511.609 70.6709L510.122 72.0088ZM514.051 77.5024C514.718 79.0267 515.201 80.4053 515.51 81.641L517.451 81.1559C517.108 79.7874 516.583 78.3014 515.883 76.7007L514.051 77.5024ZM515.516 81.6636C516.201 84.1541 516.555 87.265 516.555 91.0176H518.555C518.555 87.1529 518.192 83.8511 517.445 81.1333L515.516 81.6636ZM516.555 91.0176V98H518.555V91.0176H516.555ZM517.555 97H498.854V99H517.555V97ZM499.589 97.3229L460.185 54.5006L458.713 55.8549L498.118 98.6771L499.589 97.3229ZM459.449 54.1777H459.303V56.1777H459.449V54.1777ZM497.412 52.3945C497.412 47.9622 497.755 44.352 498.423 41.5416C499.093 38.7192 500.068 36.7943 501.261 35.6295L499.864 34.1986C498.29 35.7357 497.19 38.0751 496.477 41.0795C495.761 44.096 495.412 47.8751 495.412 52.3945H497.412ZM501.262 35.6291C502.558 34.3617 504.265 33.5286 506.44 33.1661L506.111 31.1933C503.599 31.612 501.497 32.6019 499.863 34.1991L501.262 35.6291ZM506.451 33.1642C508.751 32.7545 511.57 32.5449 514.918 32.5449V30.5449C511.495 30.5449 508.552 30.7585 506.1 31.1952L506.451 33.1642ZM514.918 32.5449H517.555V30.5449H514.918V32.5449ZM516.555 31.5449V39.2598H518.555V31.5449H516.555ZM516.555 39.2598C516.555 46.0647 514.763 50.2657 511.545 52.3346L512.627 54.017C516.7 51.3984 518.555 46.322 518.555 39.2598H516.555ZM511.541 52.3373C509.194 53.8631 505.067 54.7148 498.951 54.7148V56.7148C505.14 56.7148 509.77 55.8739 512.631 54.0142L511.541 52.3373ZM498.951 54.7148H496.412V56.7148H498.951V54.7148ZM497.412 55.7148V52.3945H495.412V55.7148H497.412ZM456.299 90.3828C456.299 83.5794 458.089 79.3572 461.314 77.2557L460.222 75.5802C456.154 78.2314 454.299 83.319 454.299 90.3828H456.299ZM461.305 77.2612C463.655 75.7634 467.785 74.9277 473.902 74.9277V72.9277C467.715 72.9277 463.089 73.7522 460.23 75.5747L461.305 77.2612ZM473.902 74.9277H476.441V72.9277H473.902V74.9277ZM475.441 73.9277V77.248H477.441V73.9277H475.441ZM475.441 77.248C475.441 81.7304 475.098 85.3602 474.431 88.1614C473.761 90.9772 472.787 92.8531 471.61 93.9472L472.972 95.4122C474.562 93.9346 475.664 91.6195 476.377 88.6247C477.093 85.6154 477.441 81.8152 477.441 77.248H475.441ZM471.61 93.9478C469.939 95.5036 467.429 96.4952 463.949 96.8087L464.129 98.8007C467.875 98.4631 470.867 97.3714 472.972 95.4116L471.61 93.9478ZM463.968 96.8072C462.173 96.9354 460.163 97 457.936 97V99C460.2 99 462.259 98.9344 464.11 98.8021L463.968 96.8072ZM457.936 97H455.299V99H457.936V97ZM456.299 98V90.3828H454.299V98H456.299Z" fill="#FF7602"/>
</svg>
